<?xml version="1.0" encoding="UTF-8"?>
<svg version="1.1" viewBox="0 0 2048 577" width="1280" height="1280" xmlns="http://www.w3.org/2000/svg">
<path transform="translate(258,10)" d="m0 0h12l10 4 49 28 26 15 25 14 24 14 24 13 21 12 29 16 17 10 10 9 4 8 2 8v10l-4 13-4 6-9 8-28 16-24 14-26 15-22 13-17 10-21 12-23 13-49 28-12 6-6 1-13-4-25-14-28-16-24-14-26-15-45-25-10-8-7-8-3-7v-16l3-10 5 1 24 14 20 11 23 13 24 14 26 15 39 23 8 5 10 2 9-4 20-11 16-9 15-9 22-13 48-28 17-9 24-14 35-21-5-6-13-8-25-14-26-15-30-18-24-14-24-13-14-8-29-17-8-5-5-2h-9l-22 12-25 14-28 16-52 30-15 9-25 14-24 14-13 8-2 4v229l3 8 4 5v2l4 2 17 10 49 28 24 14 28 16 52 30 16 9 12 4h9l12-6 11-7 52-30 28-17 25-15 17-10 23-13 24-14 25-14 13-6 4 1 2 14v8l-3 9-6 8-9 7-16 9-27 15-24 14-23 13-28 16-17 10-26 15-22 13-25 14-9 5-4 1h-9l-10-4-24-14-52-30-22-13-18-10-24-14-27-15-48-28-9-7-5-8v-274l4-6 7-6 56-32 23-13 26-15 14-8 24-14 23-13 17-10 26-15z" fill="#25A1DE"/>
<path transform="translate(629,219)" d="m0 0h20l16 3 12 5 12 7 13 12 8 9 9 17 4 14 1 6v24l-2 7h-125l4 8 4 5 10 7 10 5 11 2 12-1 10-3 7-1 37 15-1 4-10 9-11 7-16 6-14 3h-22l-15-3-12-5-12-7-12-11-8-9-8-14-4-11-3-11-1-9v-11l3-17 6-16 7-11 9-11 14-11 15-8 14-4zm5 38-12 3-10 5-8 7-7 11 3 2h80l-1-5-6-8-7-7-10-5-13-3z" fill="#24A0DE"/>
<path transform="translate(1594,219)" d="m0 0h18l17 3 12 5 10 6 15 12 10 13 7 15 4 13 2 21-2 15-1 1h-125l4 8 5 5 7 6 15 7 13 1 14-3 5-2 8 1 33 14v4l-10 9-11 7-16 6-7 2-8 1h-21l-14-3-11-4-14-8-13-11-8-10-10-19-4-17-1-15 2-17 5-15 8-15 11-13 16-12 15-7 12-3zm3 38-13 4-10 6-7 6-5 8v4h82l-1-6-8-10-9-6-9-4-9-2z" fill="#25A0DE"/>
<path transform="translate(1261,219)" d="m0 0h11l16 2 12 4 16 9 11 9 8 9 10 17 4 11 3 17v17l-3 9h-125l5 9 7 7 11 7 16 4 11-1 11-3 7-1 20 8 17 7v3l-8 8-14 9-16 6-14 3h-22l-17-4-14-6-10-7-10-9-6-7-8-13-5-12-3-11-2-19 3-18 5-15 6-11 9-11 7-7 11-8 16-8 12-3zm-1 38-13 4-10 6-7 7-6 9 1 2h83l-1-5-8-10-9-7-13-5-4-1z" fill="#25A1DE"/>
<path transform="translate(1859,158)" d="m0 0h39l1 76 13-8 8-4 11-3h20l14 3 16 8 13 11 9 13 6 12 3 13 1 8v97l-1 1h-37l-1-2-1-94-4-12-6-8-10-7-9-3-11-1-12 3-10 7-6 7-4 10-2 11-1 88-1 1h-37l-1-5z" fill="#27A1DE"/>
<path transform="translate(1006,219)" d="m0 0h17l12 2 13 5 11 7 3 1 1-11h24l13 1 1 1v159l-1 1h-37l-1-1-1-87-4-13-7-11-9-8-12-5-7-2h-14l-12 4-11 7-8 9-5 10-2 9v14l3 11 4 8 9 10 12 7 13 3h10l11-3 3 5 10 24 1 6-9 4-16 3h-18l-16-3-12-5-12-7-12-11-11-16-6-15-3-11-1-7v-20l2-12 6-17 7-12 9-11 11-9 11-7 14-5z" fill="#26A1DE"/>
<path transform="translate(505,231)" d="m0 0h3v35l-3 5-11 7-67 39-26 15-24 14-26 15-17 10-29 17-24 14-6 3-5 1h-9l-9-3-14-8-20-13-17-10-25-15-24-14-25-14-19-10-14-9-6-8-3-9v-22l1-3 6 2 23 13 21 12 25 14 24 14 29 17 22 13 23 13 3 1h7l14-7 17-10 14-8 20-12 26-15 24-14 22-12 22-13 15-10 54-30z" fill="#25A1DE"/>
<path transform="translate(509,312)" d="m0 0h3v34l-3 5-5 4-24 14-26 15-13 8-20 12-17 10-14 7-25 15-16 9-65 38-11 4-9-1-16-8-29-17-28-17-29-17-17-10-32-17-14-10-6-8-3-9-1-12 1-12 3-1 27 15 25 15 14 8 39 23 24 14 25 14 17 10 9 1 16-8 27-16 16-9 24-14 21-12 26-15 21-12 16-10 18-11 18-10 16-9z" fill="#25A1DE"/>
<path transform="translate(1778,219)" d="m0 0h19l16 3 13 5 12 8 9 8-2 4-23 23-4-1-9-6-16-5h-12l-13 4-10 6-9 10-5 10-2 8v16l4 13 6 9 9 8 10 5 6 2 14 1 10-2 14-7 3-3 5 1 24 24-1 4-13 10-15 7-14 4-7 1h-21l-14-3-15-6-11-7-12-11-8-10-8-15-5-16-1-7v-20l3-15 6-15 7-11 11-12 13-10 16-8 12-3z" fill="#25A1DE"/>
<path transform="translate(1467,181)" d="m0 0 4 1v59l2 1h18l3 1 8 32 1 6h-32l1 56 4 5 8 3 26 1 3 7 7 28v4h-41l-16-4-11-7-10-10-5-8-4-11-1-4-1-21v-129l7-3z" fill="#28A2DE"/>
<path transform="translate(878,181)" d="m0 0h4v62l21-1 2 1 9 34v4h-32l1 55 4 6 7 3 28 1 5 18 4 16v5h-41l-10-2-9-4-9-6-7-7-7-10-4-11-1-5-1-149 7-3z" fill="#24A0DE"/>
<path transform="translate(1124,158)" d="m0 0h38l1 1v225l-1 1h-38z" fill="#26A1DE"/>
<path transform="translate(824,218)" d="m0 0 4 1v37l-6 2-13 4-9 5-7 7-7 11-3 10-1 89-1 1h-38l-1-4v-142l1-16h38l1 1-1 10 20-11 15-4z" fill="#29A2DE"/>
</svg>
