<?xml version="1.0" encoding="UTF-8"?>
<svg version="1.1" viewBox="0 0 2048 665" width="1280" height="1280" xmlns="http://www.w3.org/2000/svg">
<path transform="translate(1292,199)" d="m0 0h49l4 6 17 49 16 47 15 43 15 44 6 16v3l-3 1h-37l-4-4-12-36-2-5v-3l-80 1-3 8-11 35-2 3h-42l1-5 9-24 23-68 17-48 20-59zm21 44-3 9-18 56-5 15v2l38 1h18l1-2-5-16-17-53-5-12z" fill="#220D49"/>
<path transform="translate(1545,188)" d="m0 0h39l1 4v214l-1 1-10 1-28-1-1-5 1-14-7 4-10 9-9 5-12 4-6 1h-12l-14-3-14-7-10-9-7-10-6-12-4-13-2-12v-30l4-20 7-17 8-11 10-9 14-7 13-3h18l13 3 11 6 11 9 3 3zm-44 93-10 4-8 7-5 8-4 15-1 11v9l2 15 5 12 7 9 10 5 8 2h9l12-4 10-9 5-7 4-15 1-16-2-17-4-11-7-9-8-6-8-3z" fill="#220D49"/>
<path transform="translate(1084,188)" d="m0 0h39l1 1v216l-1 2h-38l-1-1 1-18-7 4-7 7-11 7-13 4-8 1h-9l-15-3-14-7-11-10-9-14-6-16-3-15v-33l4-18 6-15 8-12 7-7 11-7 10-4 10-2h18l13 3 13 7 12 11zm-44 93-10 4-8 7-5 8-4 15-1 19 2 16 5 12 7 9 10 5 8 2h10l11-4 10-9 5-7 4-15 1-16-2-17-4-11-7-9-8-6-9-3z" fill="#220D49"/>
<path transform="translate(1733,188)" d="m0 0h39v219h-38l-1-1-1-18-6 4-11 10-12 6-15 3h-11l-14-3-13-7-12-11-7-11-6-13-3-13-2-21v-9l2-18 5-17 7-14 9-10 8-7 13-6 13-3h18l13 3 11 6 9 9 4 3zm-44 93-11 4-6 5-7 11-3 11-1 8v20l3 14 6 12 7 7 10 4 6 1h10l12-5 8-7 6-10 3-9 1-7v-23l-3-12-5-10-6-7-8-5-7-2z" fill="#220D49"/>
<path transform="translate(158,433)" d="m0 0h18l16 4 14 7 9 7 9 10 8 13 5 11 4 14 1 11-2 15-4 13-7 13-9 10-7 7-15 9-13 5-8 2-13 1-17-2-14-5-12-7-9-8-9-12-8-14-4-10-2-12v-14l4-17 8-17 9-10 9-8 13-8 11-5 7-2z" fill="#220D49"/>
<path transform="translate(701,248)" d="m0 0h25l17 4 12 6 10 9 6 8 5 10 4 15 1 6v30l-3 2h-102l4 16 6 11 8 7 10 4 5 1h11l12-3 10-6 5-5 4-6 5 1 14 9 8 5 1 4-7 11-10 10-11 7-12 4-19 3h-12l-16-2-15-5-12-7-10-9-7-10-6-12-4-13-2-11v-26l4-18 5-12 7-11 9-10 10-7 12-6zm4 30-11 4-8 7-6 10-3 9v4l2 1h63l2-1-1-9-4-11-4-6-8-6-8-2z" fill="#220D49"/>
<path transform="translate(862,248)" d="m0 0h26l14 3 14 7 8 8 7 14 2 12 1 76 1 7 2 1 12 1 3 3 1 11v13l-4 3-7 1h-21l-10-4-7-8-4-8-4 1-13 13-11 6-14 3h-11l-14-3-12-6-9-9-6-12-2-8v-19l4-12 7-9 9-7 11-5 19-5 25-6 12-6 3-4v-8l-3-6-5-4-6-2h-11l-18 4-13 7-10 9-4 1-14-20-2-5 4-6 15-10 14-7 14-4zm30 82-16 6-23 6-6 4-4 8v12l5 10 6 4 7 2h9l10-4 8-7 6-11 2-11v-9l-1-10z" fill="#220D49"/>
<path transform="translate(139,133)" d="m0 0h12l14 4 16 8 9 8 10 14 7 14 3 12v16l-4 14-8 15-9 10-13 9-10 5-15 4h-21l-15-6-12-7-8-8-9-13-7-15-2-8v-17l4-15 7-13 9-10 11-9 12-7 13-4z" fill="#220D49"/>
<path transform="translate(1942,248)" d="m0 0h27l16 4 12 6 10 8 2 3-1 4-7 8-11 12-4-1-8-6-11-5-16-2-10 2-8 5-2 4 1 9 5 5 8 4 30 7 14 5 12 7 8 9 5 11 1 5v18l-4 12-8 11-8 7-12 6-18 4-10 1h-9l-16-2-18-6-11-6-10-9-2-2v-6l4-6 16-16 5 2 5 6 11 7 10 4 5 1h16l10-4 4-4 1-3v-7l-3-7-7-4-24-6-17-5-14-7-7-6-7-11-4-13v-11l2-9 6-12 8-8 10-6 9-4z" fill="#220D49"/>
<path transform="translate(309,418)" d="m0 0h17l13 4 13 7 10 9 7 10 7 14 3 11v16l-4 13-8 15-9 9-14 9-12 5-10 2h-14l-13-4-12-6-10-9-9-12-7-15-2-9v-18l5-13 6-11 9-10 12-9 12-6z" fill="#220D49"/>
<path transform="translate(480,200)" d="m0 0h40l1 1v172l93 1v33l-79 1h-55l-1-17v-190z" fill="#220D49"/>
<path transform="translate(249,309)" d="m0 0h8l12 3 17 9 6 5 9 12 7 14 3 11-1 16-3 12-8 16-10 9-17 10-11 3h-22l-11-4-13-7-10-11-7-11-6-18v-19l4-12 6-12 5-6 12-9 16-8z" fill="#220D49"/>
<path transform="translate(288,191)" d="m0 0h16l13 4 12 7 10 10 9 14 4 10 2 9v10l-3 11-8 16-6 8-13 9-10 5-9 3-14 1-13-2-16-8-8-7-9-13-6-13-2-7v-19l5-14 6-10 5-6 10-8 16-8z" fill="#220D49"/>
<path transform="translate(59,282)" d="m0 0h17l15 5 11 7 9 9 8 14 4 12 1 13-3 12-6 14-9 10-13 9-11 5-9 2h-11l-10-2-14-6-7-6-9-11-8-16-3-14 1-11 5-13 6-11 9-9 15-9z" fill="#220D49"/>
<path transform="translate(378,303)" d="m0 0h16l12 4 11 6 8 8 9 14 5 14v15l-5 14-7 11-9 8-13 8-13 4h-16l-17-7-6-4-8-9-8-13-4-13-1-4v-8l5-16 7-12 10-9 10-6 10-4z" fill="#220D49"/>
<path transform="translate(1817,251)" d="m0 0h38l1 1v155l-38 1-1-1-1-61v-39z" fill="#220D49"/>
<path transform="translate(1490,509)" d="m0 0h11l11 2 11 6 4 5v8l-4 4-5 1-10-7-7-3h-12l-7 3-6 7-3 9-1 10 2 16 4 8 9 6 11 1 8-3 6-7 1-7-1-2-3-1h-12l-4-1-1-2v-11l4-1h34v47l-3 2h-11l-2-2-1-8-5 4-4 5-3 1h-19l-10-3-8-7-6-10-4-14v-19l3-13 5-9 8-8 10-5z" fill="#220D49"/>
<path transform="translate(1036,517)" d="m0 0 6 1 1 14h14l4 1 1 2v9l-2 1h-17l1 40h17l2 5v6l-2 2h-25l-5-5-4-9-1-9-1-29-7-2-8 1-13 4-6 4-2 5-1 9-1 31h-15l-1-1v-63l1-2h11l5 3 2 4 2 1 2-5 4-3h10l7 3 9-3 2-11 5-3z" fill="#220D49"/>
<path transform="translate(1715,531)" d="m0 0 8 1 4 5 10 32 3 7 8-40 2-4h10l4 2v6l-3 9-10 42-2 6-2 1h-14l-3-4-5-16-6-21-2-2-7 28-4 12-3 3h-13l-4-4-5-19-8-36v-7h13l3 7 5 23 2 12 3-3 7-21 5-16z" fill="#220D49"/>
<path transform="translate(822,510)" d="m0 0h27l17 1 8 3 7 7 4 11v13l-4 10-7 6-7 3-17 2h-12l1 16v15l-1 1h-16l-1-11v-76zm17 14-1 1v23l2 4h18l7-4 3-5v-9l-3-6-4-3-3-1z" fill="#220D49"/>
<path transform="translate(1829,505)" d="m0 0h15l1 2v24l-1 8 9-5 8-3h8l9 2 5 3 4 8 1 5 1 20v29h-16l-1-1-1-44-2-6-9-2-9 3-4 6-1 4-1 39-1 1h-14l-1-1-1-90z" fill="#220D49"/>
<path transform="translate(1176,531)" d="m0 0h15l8 3 7 6 4 7 1 5v16l-1 2h-43l4 10 6 5h12l6-3 4-3 9-1 1 1v6l-5 8-5 4-7 2h-22l-8-5-7-8-4-9-1-4v-15l4-11 4-6 8-7zm4 12-7 3-4 5-2 4v3l2 1h24l2-1v-6l-4-6-5-3z" fill="#220D49"/>
<path transform="translate(1626,531)" d="m0 0h10l11 3 8 6 6 10 3 14v7l-3 11-6 8-7 6-9 3h-19l-9-4-7-7-5-11-1-4v-14l3-10 5-8 8-7 5-2zm-2 14-5 4-4 8-1 10 4 13 5 5 3 1h9l6-4 4-5 1-3v-17l-3-6-5-5-3-1z" fill="#220D49"/>
<path transform="translate(608,531)" d="m0 0 14 1 9 4 5 4 5 8 2 5 1 6v15l-3 9-4 6-8 7-9 3h-19l-9-4-8-8-5-12v-17l3-10 6-9 9-6zm-3 14-5 3-4 9-1 8 3 14 5 6 3 1h10l6-4 4-5 1-4v-14l-3-8-4-4-4-2z" fill="#220D49"/>
<path transform="translate(1349,531)" d="m0 0 12 2 3 4v2l8-4 5-3 4-1h9l9 3 5 5 3 8 1 11v40h-16l-1-2-1-44-2-5-2-1h-12l-4 2-4 8-1 41-1 1h-16v-66z" fill="#220D49"/>
<path transform="translate(922,531)" d="m0 0h10l10 3 6 7 2 9 1 34 4 2 4 4 1 7-7 2h-10l-3-3-2-4-8 4-2 2-4 1h-16l-7-4-5-10v-10l2-5 5-5 12-5 17-4 2-4-1-5-2-2h-8l-9 2-8 5-5-1-3-9 4-4 10-5zm8 35-13 4-5 4v9l3 4 8 1 10-5 2-3v-12l-1-2z" fill="#220D49"/>
<path transform="translate(1109,531)" d="m0 0 13 1 6 4 4 5 2 7 1 26v23l-1 1h-15l-1-1-1-46-1-4-4-1h-11l-6 4-2 4-1 8-1 36-14 1-2-2-1-16v-28l1-20 1-1h10l4 3 1 3 6-2 6-4z" fill="#220D49"/>
<path transform="translate(659,532)" d="m0 0h15l1 1 1 44 1 7 3 1h8l9-3 2-5 1-14 1-31h15l2 3v61l-1 2-10 1-4-1-1-7-6 4-5 3-15 1-8-2-6-7-3-8-1-49z" fill="#220D49"/>
<path transform="translate(494,509)" d="m0 0 13 1 6 3 10 17 7 13h4l9-17 8-13 2-2 4-1h14l-7 14-20 35-2 5-1 6v27l-1 1h-15l-2-2-1-31-8-16-13-24-6-10z" fill="#220D49"/>
<path transform="translate(1791,516)" d="m0 0 3 1 1 2v13h15l4 2 1 2v6l-1 2-19 1 1 40h18l1 2v9l-2 2h-24l-5-5-4-8-1-6-1-29-1-4-11-4 1-7 9-3 2-11 5-3z" fill="#220D49"/>
<path transform="translate(1830,186)" d="m0 0h12l10 4 7 8 2 6v9l-3 7-6 7-6 3-4 1h-13l-8-4-7-8-2-5v-10l5-10 6-5z" fill="#220D49"/>
<path transform="translate(181,273)" d="m0 0 8 1 7 5 8 13 2 7-1 7-5 6-14 9-2 1h-8l-8-5-5-6-5-10v-10l5-8 11-7z" fill="#220D49"/>
<path transform="translate(1311,510)" d="m0 0h11l6 1v86l-1 1h-16l-1-1v-86z" fill="#220D49"/>
<path transform="translate(1549,532)" d="m0 0h10l6 3 5 2 7-5h11l3 3-2 9-5 3-12 3-4 3-1 3-1 41-1 1h-15l-2-4z" fill="#220D49"/>
<path transform="translate(1226,532)" d="m0 0h9l6 2 3 3 4-1 4-3 12-1 3 1 1 4-2 7-6 3-13 4-2 1-1 5-1 40-1 1h-15l-1-1z" fill="#220D49"/>
<path transform="translate(739,532)" d="m0 0h7l6 2 1 5 6-1 2-4 7-2h8l2 2v7l-2 5-19 3-2 11-1 37-1 1h-15l-1-1v-37l1-27z" fill="#220D49"/>
<path transform="translate(147,340)" d="m0 0 7 1 5 3 7 10 3 6v8l-7 8-7 5-6 2h-9l-6-4-8-12-1-3v-10l4-5 11-7z" fill="#220D49"/>
<path transform="translate(1910,580)" d="m0 0h7l5 3 1 13-1 1-14 1-4-4v-10l3-3z" fill="#220D49"/>
</svg>
